<?xml version="1.0" encoding="UTF-8"?>
<!-- Generator: visioncortex VTracer 0.6.3 -->
<svg version="1.1" xmlns="http://www.w3.org/2000/svg" width="1039" height="1280">
<path d="M0 0 C0.76 0 1.53 0 2.32 0.01 C3.52 -0 3.52 -0 4.76 -0.01 C7.43 -0.02 10.11 -0.02 12.79 -0.02 C14.65 -0.02 16.52 -0.03 18.39 -0.03 C22.31 -0.04 26.24 -0.04 30.17 -0.03 C35.16 -0.03 40.15 -0.04 45.15 -0.07 C49.01 -0.08 52.88 -0.08 56.74 -0.08 C58.58 -0.08 60.42 -0.09 62.26 -0.1 C81.51 -0.19 100.84 1.91 116.52 14.28 C117.13 14.74 117.73 15.19 118.35 15.66 C122.74 19.45 125.24 24.06 127.84 29.16 C128.17 29.82 128.51 30.48 128.86 31.16 C132.69 39.08 133.9 46.85 133.84 55.59 C133.83 56.42 133.82 57.25 133.82 58.11 C133.55 71.83 129.15 84.19 119.7 94.37 C112.42 100.77 103.64 105.16 94.52 108.28 C95.94 112.35 97.89 115.33 100.52 118.72 C101.34 119.78 102.15 120.85 102.96 121.91 C103.39 122.46 103.81 123.01 104.24 123.58 C106.37 126.4 108.42 129.28 110.46 132.16 C111.08 133.03 111.08 133.03 111.72 133.93 C112.57 135.12 113.41 136.31 114.26 137.5 C115.93 139.85 117.6 142.19 119.28 144.54 C120.1 145.7 120.93 146.85 121.76 148.01 C123.92 151.05 126.1 154.08 128.3 157.1 C128.76 157.73 129.21 158.35 129.68 159 C130.55 160.19 131.42 161.39 132.3 162.58 C134.57 165.71 136.16 168.67 137.52 172.28 C132.65 172.46 127.78 172.58 122.9 172.67 C121.24 172.7 119.59 172.75 117.93 172.81 C104.23 173.3 104.23 173.3 100.2 170.89 C98.64 169.1 97.59 167.41 96.52 165.28 C95.85 164.32 95.17 163.35 94.47 162.36 C93.57 160.96 93.57 160.96 92.65 159.53 C90.13 155.69 87.57 151.92 84.84 148.22 C80.51 142.35 76.43 136.32 72.35 130.27 C71.3 128.71 70.22 127.16 69.12 125.63 C67.52 123.28 67.52 123.28 66.21 120.72 C64.54 117.83 63.28 116.19 60.52 114.28 C54.36 113.14 48.38 113.39 42.15 113.66 C40.45 113.69 38.76 113.73 37.07 113.75 C29.79 113.3 29.79 113.3 23.52 115.28 C23.4 117.06 23.35 118.85 23.32 120.63 C23.3 121.77 23.28 122.91 23.26 124.09 C23.23 125.95 23.23 125.95 23.21 127.85 C23.19 129.11 23.17 130.38 23.14 131.68 C23.09 135.04 23.04 138.41 22.99 141.77 C22.94 145.21 22.89 148.64 22.83 152.07 C22.72 158.81 22.62 165.54 22.52 172.28 C18.41 172.31 14.3 172.33 10.19 172.34 C8.79 172.34 7.39 172.35 5.99 172.36 C3.98 172.37 1.97 172.37 -0.04 172.38 C-1.85 172.39 -1.85 172.39 -3.7 172.4 C-6.48 172.28 -6.48 172.28 -7.48 171.28 C-7.58 169.11 -7.61 166.93 -7.61 164.76 C-7.61 164.07 -7.61 163.38 -7.62 162.67 C-7.62 160.34 -7.62 158.01 -7.62 155.69 C-7.62 154.02 -7.63 152.36 -7.63 150.7 C-7.64 146.17 -7.64 141.65 -7.64 137.12 C-7.64 133.35 -7.65 129.58 -7.65 125.8 C-7.66 116.91 -7.66 108.01 -7.66 99.11 C-7.66 89.92 -7.67 80.73 -7.69 71.53 C-7.7 63.66 -7.71 55.78 -7.71 47.9 C-7.71 43.18 -7.71 38.47 -7.72 33.76 C-7.73 29.33 -7.73 24.9 -7.72 20.47 C-7.72 18.84 -7.72 17.21 -7.73 15.58 C-7.74 13.37 -7.73 11.15 -7.72 8.93 C-7.72 7.69 -7.72 6.45 -7.73 5.16 C-7.27 -0.11 -4.7 0.05 0 0 Z M22.52 29.28 C22.22 31.7 22.22 31.7 22.28 34.54 C22.28 35.64 22.27 36.74 22.27 37.87 C22.28 39.06 22.29 40.25 22.29 41.47 C22.29 42.69 22.29 43.9 22.29 45.16 C22.3 47.73 22.31 50.3 22.32 52.88 C22.34 56.83 22.34 60.79 22.34 64.74 C22.34 67.24 22.35 69.73 22.36 72.22 C22.36 73.42 22.36 74.61 22.36 75.83 C22.37 76.93 22.37 78.02 22.38 79.15 C22.38 80.12 22.39 81.09 22.39 82.09 C22.28 84.26 22.28 84.26 23.52 85.28 C25.25 85.4 26.98 85.44 28.71 85.46 C29.82 85.47 30.93 85.48 32.07 85.5 C33.28 85.51 34.49 85.51 35.74 85.52 C36.98 85.53 38.22 85.54 39.5 85.54 C42.13 85.56 44.77 85.57 47.4 85.58 C50.09 85.59 52.78 85.61 55.47 85.64 C59.35 85.68 63.23 85.7 67.11 85.71 C68.9 85.73 68.9 85.73 70.73 85.76 C80.54 85.74 88.74 83.76 96.05 76.92 C102.06 70.21 102.85 63.04 102.73 54.34 C102.15 45.82 98.78 40.02 92.52 34.28 C83.6 27.93 73.28 26.82 62.58 26.92 C60.95 26.92 60.95 26.92 59.28 26.92 C57 26.92 54.72 26.93 52.44 26.95 C48.94 26.97 45.44 26.97 41.94 26.96 C39.71 26.97 37.49 26.97 35.27 26.98 C34.22 26.98 33.17 26.98 32.09 26.98 C30.64 26.99 30.64 26.99 29.17 27.01 C27.89 27.01 27.89 27.01 26.59 27.02 C24.3 27.1 24.3 27.1 22.52 29.28 Z " fill="#01060A" transform="translate(630.4764251708984,467.71783447265625)"/>
<path d="M0 0 C1.15 -0 2.31 -0 3.49 -0 C4.7 -0 5.91 0 7.16 0.01 C8.37 0 9.57 0 10.81 -0 C12.55 -0 12.55 -0 14.31 0 C15.37 0 16.43 0 17.53 0 C20.22 0.13 20.22 0.13 23.22 1.13 C23.55 28.85 23.88 56.57 24.22 85.13 C27.19 81.83 30.16 78.53 33.22 75.13 C35.58 72.73 37.94 70.36 40.35 68.01 C44.58 63.87 48.6 59.63 52.47 55.15 C55.33 51.86 58.3 48.68 61.29 45.51 C61.93 44.82 62.57 44.14 63.23 43.43 C68.22 38.13 73.34 32.98 78.51 27.86 C81.92 24.47 85.19 21.02 88.3 17.35 C91.15 14.07 94.09 10.88 97.04 7.7 C97.61 7.07 98.19 6.44 98.78 5.79 C99.33 5.2 99.87 4.62 100.43 4.01 C100.92 3.48 101.41 2.95 101.91 2.4 C105 -0.59 108.54 -0.01 112.57 0 C113.65 -0 113.65 -0 114.76 -0 C116.3 -0 117.83 -0 119.36 0 C121.71 0.01 124.06 0 126.41 -0 C127.9 -0 129.39 -0 130.88 0 C131.58 -0 132.29 -0 133.02 -0.01 C137.99 0.02 137.99 0.02 140.22 1.13 C138.83 4.39 137.27 6.17 134.54 8.38 C131.8 10.7 129.35 13.02 127.04 15.76 C123.79 19.59 120.29 23.11 116.72 26.63 C112.67 30.64 108.78 34.69 105.09 39.04 C102.08 42.41 98.84 45.54 95.62 48.71 C92.9 51.42 90.27 54.14 87.79 57.07 C82.65 63.11 76.86 68.57 71.22 74.13 C73.22 79.59 76.11 83.02 80.22 87.13 C81.01 88.31 81.78 89.5 82.54 90.7 C85.8 95.66 89.37 100.36 92.97 105.07 C93.55 105.83 94.13 106.59 94.73 107.37 C97.81 111.4 97.81 111.4 101.22 115.13 C102.05 116.18 102.86 117.25 103.66 118.32 C104.18 119.02 104.7 119.71 105.23 120.43 C106.83 122.6 108.41 124.78 109.99 126.96 C110.48 127.64 110.97 128.31 111.48 129.01 C112.47 130.37 113.46 131.74 114.44 133.12 C116.84 136.66 116.84 136.66 120.22 139.13 C121.18 140.82 122.14 142.51 123.08 144.22 C125.3 147.93 128.17 151.08 131.22 154.13 C132.16 155.49 133.07 156.87 133.97 158.26 C138.6 166.22 138.6 166.22 145.22 172.13 C145.22 172.79 145.22 173.45 145.22 174.13 C132.68 174.13 120.14 174.13 107.22 174.13 C107.22 173.47 107.22 172.81 107.22 172.13 C105.57 170.45 103.9 168.78 102.22 167.13 C100.71 165.29 99.23 163.41 97.79 161.51 C97.16 160.69 97.16 160.69 96.52 159.85 C92.08 154 87.75 148.07 83.41 142.16 C78.44 135.4 73.36 128.75 68.22 122.13 C66.53 119.95 64.85 117.76 63.16 115.57 C62.75 115.04 62.34 114.51 61.92 113.96 C57.64 108.39 53.43 102.77 49.22 97.13 C43.68 101.76 38.51 106.66 33.41 111.76 C32.65 112.51 31.89 113.26 31.1 114.03 C30.37 114.76 29.64 115.49 28.89 116.23 C28.23 116.89 27.58 117.54 26.9 118.21 C23.82 121.74 22.97 124.51 23 129.18 C23 130.18 23 131.18 23 132.21 C23.01 133.28 23.02 134.36 23.03 135.46 C23.03 137.12 23.03 137.12 23.04 138.81 C23.05 142.33 23.07 145.86 23.1 149.38 C23.11 151.77 23.12 154.16 23.12 156.55 C23.15 162.41 23.18 168.27 23.22 174.13 C12.99 174.13 2.76 174.13 -7.78 174.13 C-7.78 117.04 -7.78 59.95 -7.78 1.13 C-5.09 -0.21 -3 0 0 0 Z M21.22 124.13 C21.22 139.97 21.22 155.81 21.22 172.13 C11.98 172.13 2.74 172.13 -6.78 172.13 C-6.78 172.46 -6.78 172.79 -6.78 173.13 C2.79 173.13 12.36 173.13 22.22 173.13 C22.22 156.96 22.22 140.79 22.22 124.13 C21.89 124.13 21.56 124.13 21.22 124.13 Z " fill="#050A0E" transform="translate(805.77734375,467.8671875)"/>
<path d="M0 0 C0.72 -0.01 1.43 -0.01 2.17 -0.02 C4.56 -0.03 6.94 -0.03 9.33 -0.03 C10.99 -0.03 12.66 -0.03 14.32 -0.04 C17.83 -0.05 21.33 -0.05 24.83 -0.04 C29.28 -0.04 33.73 -0.05 38.18 -0.08 C41.63 -0.09 45.08 -0.09 48.52 -0.09 C50.16 -0.09 51.8 -0.09 53.43 -0.1 C73.44 -0.21 93.2 2.94 108.72 16.65 C121.75 31.44 126.01 46.82 125.18 66.15 C124.2 80.17 117.32 92.9 107.03 102.27 C93.3 113.08 76.8 117.51 59.59 117.65 C58.02 117.68 58.02 117.68 56.41 117.71 C53.1 117.76 49.79 117.8 46.47 117.84 C43.13 117.88 39.78 117.93 36.43 117.98 C34.36 118.01 32.28 118.04 30.21 118.06 C29.28 118.07 28.35 118.09 27.4 118.1 C26.58 118.11 25.75 118.12 24.91 118.13 C23.02 118.07 23.02 118.07 22.03 119.27 C21.91 120.93 21.86 122.59 21.83 124.25 C21.81 125.31 21.79 126.38 21.77 127.47 C21.75 128.62 21.74 129.78 21.72 130.97 C21.7 132.14 21.68 133.32 21.66 134.53 C21.59 138.3 21.53 142.07 21.47 145.84 C21.43 148.39 21.39 150.93 21.34 153.48 C21.23 159.75 21.13 166.01 21.03 172.27 C16.92 172.3 12.81 172.32 8.7 172.33 C7.3 172.33 5.9 172.34 4.5 172.35 C2.49 172.36 0.48 172.37 -1.52 172.37 C-3.34 172.38 -3.34 172.38 -5.19 172.39 C-7.97 172.27 -7.97 172.27 -8.97 171.27 C-9.07 169.1 -9.1 166.93 -9.1 164.75 C-9.1 164.06 -9.1 163.37 -9.11 162.66 C-9.11 160.33 -9.11 158.01 -9.11 155.68 C-9.11 154.02 -9.12 152.36 -9.12 150.69 C-9.13 146.17 -9.13 141.64 -9.13 137.11 C-9.13 133.34 -9.14 129.57 -9.14 125.8 C-9.15 116.9 -9.15 108 -9.15 99.1 C-9.15 89.91 -9.16 80.72 -9.18 71.53 C-9.19 63.65 -9.2 55.77 -9.19 47.89 C-9.19 43.18 -9.2 38.47 -9.21 33.75 C-9.22 29.32 -9.22 24.89 -9.21 20.46 C-9.21 18.83 -9.21 17.21 -9.22 15.58 C-9.23 13.36 -9.22 11.14 -9.21 8.92 C-9.21 7.68 -9.21 6.44 -9.21 5.16 C-8.7 -0.78 -5.05 0.02 0 0 Z M23.03 27.27 C21.68 29.99 21.96 32.06 22.01 35.1 C22.03 36.32 22.05 37.54 22.07 38.8 C22.1 40.14 22.13 41.48 22.16 42.81 C22.18 44.18 22.2 45.54 22.23 46.91 C22.29 50.5 22.36 54.1 22.43 57.69 C22.5 61.36 22.56 65.02 22.63 68.69 C22.76 75.88 22.89 83.08 23.03 90.27 C28.53 90.32 34.02 90.36 39.52 90.38 C41.38 90.39 43.25 90.41 45.11 90.43 C66.98 90.97 66.98 90.97 86.11 81.52 C92.16 75.24 94.13 68.31 94.35 59.71 C93.99 49.57 91.75 43.08 84.55 35.77 C76.11 28.19 65.05 26.95 54.19 27.08 C53.29 27.08 52.39 27.09 51.47 27.09 C48.64 27.1 45.8 27.12 42.97 27.15 C41.04 27.16 39.1 27.17 37.17 27.18 C32.46 27.2 27.75 27.23 23.03 27.27 Z M21.03 29.27 C21.03 48.74 21.03 68.21 21.03 88.27 C21.36 88.27 21.69 88.27 22.03 88.27 C22.03 68.8 22.03 49.33 22.03 29.27 C21.7 29.27 21.37 29.27 21.03 29.27 Z " fill="#02070B" transform="translate(266.965576171875,467.725341796875)"/>
<path d="M0 0 C2.23 1.69 3.59 2.98 4.92 5.46 C4.8 10.3 3.22 12.85 0.11 16.46 C-2.26 19.25 -4.47 21.93 -6.33 25.08 C-6.91 25.87 -7.49 26.65 -8.08 27.46 C-12.8 27.46 -14.99 25.82 -18.77 23.33 C-32.26 14.91 -47.96 9.05 -64.08 12.21 C-71.17 14.2 -77.5 16.77 -81.83 22.96 C-84.7 28.69 -84.57 34 -83.33 40.27 C-81.89 43.95 -81.48 43.96 -78.08 45.46 C-76.87 46.24 -75.66 47.03 -74.46 47.83 C-66.01 53.12 -56.75 55.45 -47.14 57.77 C-6.53 68 -6.53 68 4.92 84.46 C9.71 93.38 11.14 100.43 11.23 110.46 C11.26 111.54 11.29 112.63 11.32 113.75 C11.42 126.73 6.96 137.08 -2 146.46 C-18.17 161.38 -38.33 161.84 -59.08 161.46 C-60.64 161.43 -60.64 161.43 -62.23 161.41 C-81.74 160.36 -102.11 150.6 -117.08 138.46 C-118.41 137.45 -119.74 136.45 -121.08 135.46 C-119.51 131.91 -117.37 129.19 -114.89 126.21 C-113.7 124.77 -113.7 124.77 -112.48 123.3 C-109.39 119.64 -106.26 116.03 -103.08 112.46 C-101.77 113.33 -100.46 114.21 -99.14 115.08 C-97.91 115.9 -97.91 115.9 -96.64 116.74 C-95.03 117.82 -93.43 118.91 -91.83 120.02 C-78.51 129.17 -65.51 133.77 -49.33 133.96 C-48.37 133.98 -47.42 133.99 -46.43 134.01 C-36.94 133.93 -28.85 131.22 -22.08 124.46 C-18.64 119.21 -19.52 112.45 -20.08 106.46 C-23.49 99.13 -29.95 95.59 -37.08 92.46 C-40.27 91.35 -43.51 90.46 -46.77 89.58 C-47.68 89.33 -48.59 89.08 -49.52 88.81 C-53.29 87.76 -57.07 86.73 -60.84 85.71 C-99.8 75.24 -99.8 75.24 -111.08 57.46 C-116.21 47.13 -116.92 32.82 -113.89 21.69 C-109.23 8.82 -101.42 -2.13 -89.08 -8.54 C-58.98 -21.84 -27.55 -16.45 0 0 Z " fill="#01060A" transform="translate(209.08203125,481.54296875)"/>
<path d="M0 0 C1.47 2.76 2.49 5.44 3.38 8.44 C4.96 13.17 6.51 16.57 11.01 19.15 C15.66 21.37 19.88 22.56 25 23 C22 25 22 25 18.62 25.94 C12.84 27.63 9.24 29.87 6 35 C4.5 38.95 3.21 42.95 2 47 C0.64 44.4 -0.41 41.86 -1.31 39.06 C-3.28 33.79 -6.15 30.96 -11.16 28.36 C-15.19 26.71 -18.95 26.73 -23.25 27.06 C-24.47 27.14 -24.47 27.14 -25.71 27.23 C-64.94 30.25 -105.9 39.21 -142 55 C-142.74 55.32 -143.48 55.64 -144.24 55.97 C-159.15 62.49 -173.43 69.61 -187.26 78.21 C-191.79 81 -191.79 81 -194 81 C-194 81.66 -194 82.32 -194 83 C-196.97 83.99 -196.97 83.99 -200 85 C-200 85.66 -200 86.32 -200 87 C-205.41 91 -205.41 91 -208 91 C-208 91.66 -208 92.32 -208 93 C-209.86 94.47 -209.86 94.47 -212.31 96.06 C-213.11 96.59 -213.91 97.12 -214.74 97.66 C-217 99 -217 99 -220 100 C-220 100.66 -220 101.32 -220 102 C-220.66 102 -221.32 102 -222 102 C-222 102.66 -222 103.32 -222 104 C-223.46 105.51 -223.46 105.51 -225.38 107.12 C-226 107.66 -226.63 108.2 -227.27 108.76 C-229 110 -229 110 -231 110 C-231 110.66 -231 111.32 -231 112 C-231.66 112 -232.32 112 -233 112 C-233 112.66 -233 113.32 -233 114 C-233.66 114 -234.32 114 -235 114 C-235 114.66 -235 115.32 -235 116 C-235.66 116 -236.32 116 -237 116 C-237 116.66 -237 117.32 -237 118 C-237.66 118 -238.32 118 -239 118 C-239 118.66 -239 119.32 -239 120 C-239.66 120 -240.32 120 -241 120 C-241 120.66 -241 121.32 -241 122 C-241.66 122 -242.32 122 -243 122 C-243.24 122.55 -243.47 123.11 -243.71 123.68 C-245.31 126.56 -247.32 128.71 -249.56 131.12 C-252.64 134.32 -252.64 134.32 -255 138 C-255.66 138 -256.32 138 -257 138 C-257.27 138.58 -257.54 139.15 -257.82 139.75 C-259 142.01 -260.32 143.96 -261.83 146.01 C-262.38 146.77 -262.93 147.53 -263.5 148.31 C-264.08 149.09 -264.66 149.88 -265.25 150.69 C-273.24 160.73 -273.24 160.73 -279 172 C-279.66 172 -280.32 172 -281 172 C-281.17 172.86 -281.17 172.86 -281.34 173.75 C-282.07 176.23 -283.09 177.9 -284.5 180.06 C-288.94 187.28 -292.36 194.98 -295.91 202.65 C-296.9 204.79 -297.91 206.91 -298.92 209.04 C-306.2 224.29 -311.8 239.94 -317 256 C-328.66 257.23 -340.29 257.1 -352 257 C-348.57 245.45 -345.01 234.03 -340.24 222.95 C-338.96 219.91 -337.82 216.84 -336.69 213.75 C-334.42 207.78 -331.68 202.14 -328.77 196.47 C-327 193.03 -325.36 189.62 -324 186 C-323.34 186 -322.68 186 -322 186 C-321.87 185.42 -321.74 184.85 -321.61 184.25 C-319.48 176.34 -314.98 169.09 -311 162 C-310.34 162 -309.68 162 -309 162 C-308.89 161.44 -308.79 160.88 -308.68 160.3 C-307.31 155.67 -304.19 151.76 -301.56 147.75 C-300.96 146.81 -300.36 145.88 -299.75 144.91 C-299.17 144.03 -298.6 143.15 -298 142.23 C-297.21 141.02 -297.21 141.02 -296.4 139.77 C-295.94 139.19 -295.48 138.6 -295 138 C-294.34 138 -293.68 138 -293 138 C-292.71 137.24 -292.42 136.47 -292.12 135.69 C-291 133 -291 133 -289 130 C-288.34 130 -287.68 130 -287 130 C-286.63 129.2 -286.63 129.2 -286.25 128.38 C-284.69 125.42 -282.97 122.7 -281 120 C-280.34 120 -279.68 120 -279 120 C-279 119.34 -279 118.68 -279 118 C-278.34 118 -277.68 118 -277 118 C-276.75 117.43 -276.51 116.86 -276.25 116.27 C-274.79 113.62 -273.07 111.81 -270.94 109.67 C-270.14 108.87 -269.34 108.07 -268.52 107.25 C-267.69 106.43 -266.86 105.6 -266 104.75 C-264.75 103.49 -264.75 103.49 -263.48 102.2 C-262.68 101.41 -261.88 100.62 -261.06 99.8 C-260.33 99.07 -259.6 98.34 -258.85 97.59 C-257 96 -257 96 -255 96 C-255 95.34 -255 94.68 -255 94 C-251.54 91 -251.54 91 -249 91 C-249 90.34 -249 89.68 -249 89 C-247.32 87.49 -247.32 87.49 -245.12 85.88 C-244.41 85.34 -243.69 84.8 -242.95 84.24 C-241 83 -241 83 -239 83 C-239 82.34 -239 81.68 -239 81 C-237.16 79.54 -237.16 79.54 -234.57 77.84 C-233.62 77.22 -232.67 76.59 -231.69 75.95 C-230.66 75.28 -229.62 74.62 -228.56 73.94 C-227.51 73.26 -226.46 72.58 -225.38 71.88 C-216.82 66.41 -208.16 61.4 -199 57 C-197.94 56.49 -197.94 56.49 -196.85 55.97 C-162.57 39.71 -124.69 30.49 -87 27 C-85.66 26.87 -85.66 26.87 -84.29 26.74 C-72.76 25.68 -61.26 24.98 -49.68 24.76 C-48.35 24.73 -48.35 24.73 -46.98 24.7 C-42.54 24.62 -38.09 24.55 -33.64 24.52 C-25.54 24.41 -18.56 24.28 -11 21 C-9.55 20.57 -9.55 20.57 -8.06 20.12 C-5.19 18.56 -4.96 17.09 -4 14 C-3.23 12.33 -3.23 12.33 -2.44 10.62 C-1.01 7.02 -0.39 3.85 0 0 Z " fill="#FDFDFD" transform="translate(745,386)"/>
<path d="M0 0 C2 1 2 1 2.79 2.87 C3.2 4.14 3.2 4.14 3.62 5.44 C5.36 10.39 7.34 15.16 9.5 19.94 C13.08 27.88 16.52 35.86 19.94 43.88 C23.68 52.64 27.47 61.36 31.41 70.04 C35.75 79.6 39.93 89.23 44.13 98.85 C44.56 99.84 44.56 99.84 45.01 100.86 C45.57 102.15 46.13 103.45 46.7 104.74 C48.24 108.28 49.82 111.81 51.42 115.33 C53 119 53 119 53 121 C48.62 121.02 44.24 121.04 39.87 121.05 C38.38 121.06 36.89 121.07 35.4 121.08 C33.26 121.09 31.12 121.09 28.98 121.1 C27.69 121.1 26.4 121.11 25.07 121.11 C22 121 22 121 20 120 C19.13 118.23 18.34 116.41 17.6 114.58 C17.13 113.42 16.66 112.27 16.17 111.08 C15.65 109.8 15.14 108.53 14.62 107.25 C14.09 105.93 13.54 104.6 13 103.28 C11.88 100.53 10.76 97.79 9.64 95.04 C7.2 89.04 4.73 83.05 2.25 77.06 C1.78 75.91 1.3 74.76 0.81 73.57 C-1.82 67.2 -4.49 60.85 -7.22 54.52 C-8.72 51.04 -10.21 47.56 -11.7 44.08 C-12.44 42.37 -13.18 40.66 -13.92 38.96 C-14.97 36.57 -16 34.18 -17.02 31.78 C-17.5 30.71 -17.5 30.71 -17.98 29.62 C-19.19 26.76 -20.01 24.42 -19.95 21.3 C-18.71 18.31 -17.07 16.61 -14.75 14.36 C-13.47 13.09 -13.47 13.09 -12.16 11.81 C-11.26 10.94 -10.36 10.08 -9.44 9.19 C-8.54 8.3 -7.63 7.42 -6.71 6.51 C-4.48 4.33 -2.24 2.16 0 0 Z " fill="#01060A" transform="translate(515,519)"/>
<path d="M0 0 C1.67 0.06 1.67 0.06 3.38 0.12 C3.7 0.75 4.02 1.38 4.35 2.02 C5.81 4.85 7.28 7.67 8.75 10.5 C9.26 11.48 9.77 12.47 10.29 13.48 C10.78 14.43 11.27 15.37 11.77 16.34 C12.45 17.64 12.45 17.64 13.14 18.97 C14.32 21.24 14.32 21.24 16.38 23.12 C16.7 22.46 17.03 21.8 17.37 21.12 C18.86 18.13 20.4 15.16 21.94 12.19 C22.71 10.63 22.71 10.63 23.49 9.03 C27.39 1.61 27.39 1.61 30.3 0.18 C32.21 -0.13 32.21 -0.13 35.38 0.12 C36.38 1.12 36.38 1.12 36.49 4.64 C36.49 6.2 36.48 7.76 36.47 9.32 C36.47 10.14 36.47 10.96 36.47 11.8 C36.46 14.43 36.45 17.06 36.44 19.69 C36.43 21.47 36.43 23.24 36.42 25.02 C36.41 29.39 36.4 33.76 36.38 38.12 C34.71 38.17 33.04 38.17 31.38 38.12 C29.83 36.58 30.16 35.03 30.06 32.87 C30.02 32.02 29.97 31.16 29.93 30.28 C29.89 29.39 29.85 28.49 29.81 27.56 C29.77 26.66 29.73 25.76 29.68 24.83 C29.58 22.6 29.47 20.36 29.38 18.12 C25.95 21.19 24.1 24.24 22.12 28.38 C21.6 29.45 21.08 30.53 20.55 31.64 C20.16 32.46 19.77 33.28 19.38 34.12 C16.18 34.12 16.18 34.12 12.38 33.12 C10.2 30.78 8.86 28.1 7.44 25.25 C7.04 24.52 6.64 23.78 6.23 23.03 C3.38 17.63 3.38 17.63 3.38 14.12 C2.71 14.12 2.06 14.12 1.38 14.12 C1.38 22.04 1.38 29.97 1.38 38.12 C-0.61 38.12 -2.58 38.12 -4.62 38.12 C-6.62 36.13 -5.79 32.17 -5.79 29.44 C-5.8 28.29 -5.8 28.29 -5.8 27.11 C-5.81 25.47 -5.81 23.84 -5.81 22.21 C-5.81 19.7 -5.83 17.2 -5.85 14.69 C-5.85 13.11 -5.85 11.53 -5.86 9.94 C-5.86 9.19 -5.87 8.44 -5.88 7.66 C-5.84 0.2 -5.84 0.2 0 0 Z " fill="#04090D" transform="translate(270.625,675.875)"/>
<path d="M0 0 C0.33 0 0.66 0 1 0 C1.12 0.62 1.24 1.23 1.37 1.87 C2.5 7.6 3.71 13.3 5 19 C5.66 19 6.32 19 7 19 C8.23 20.39 8.23 20.39 9.62 22.25 C15.33 29.07 22.49 30.67 31 32 C31 32.33 31 32.66 31 33 C29.64 33.2 29.64 33.2 28.25 33.41 C19.14 35.02 12.42 37.27 6.64 44.77 C2.77 51 1.75 57.86 1 65 C-0.49 62.27 -1.3 59.93 -1.81 56.88 C-3.45 49.36 -5.95 42.99 -12.44 38.5 C-18.51 34.94 -24.08 33.72 -31 33 C-28.63 30.63 -27.62 30.62 -24.38 30.12 C-16.23 28.6 -10.82 25.96 -6 19 C-2.22 13 -0.97 6.97 0 0 Z " fill="#FDFDFD" transform="translate(481,576)"/>
<path d="M0 0 C16.42 0.12 16.42 0.12 22.03 4.84 C26.27 9.33 28.2 13.75 28.26 20.01 C27.96 25.8 27.24 29.88 23.24 34.33 C18.6 37.78 14.08 38.45 8.41 38.46 C7.53 38.46 6.64 38.47 5.74 38.47 C4.83 38.46 3.92 38.46 2.99 38.45 C2.06 38.46 1.14 38.46 0.19 38.47 C-0.69 38.47 -1.56 38.46 -2.47 38.46 C-3.27 38.46 -4.07 38.46 -4.89 38.46 C-6.76 38.33 -6.76 38.33 -7.76 37.33 C-7.88 34.76 -7.93 32.22 -7.93 29.65 C-7.94 28.49 -7.94 28.49 -7.94 27.31 C-7.95 25.68 -7.95 24.04 -7.95 22.41 C-7.95 19.91 -7.97 17.4 -7.99 14.9 C-7.99 13.31 -7.99 11.73 -7.99 10.15 C-8 9.39 -8.01 8.64 -8.02 7.87 C-7.99 1.18 -6.66 0.09 0 0 Z M-0.76 9.33 C-1.06 11.54 -1.06 11.54 -0.99 14.08 C-0.99 15.02 -0.99 15.96 -0.99 16.92 C-0.98 17.9 -0.96 18.88 -0.95 19.89 C-0.95 20.88 -0.95 21.86 -0.95 22.87 C-1.35 27.44 -1.35 27.44 0.24 31.33 C2.69 31.51 5.09 31.61 7.55 31.64 C8.23 31.67 8.9 31.7 9.6 31.73 C13.08 31.77 14.88 31.61 17.65 29.44 C20.52 25.61 20.68 22.65 20.66 17.95 C19.97 13.67 17.57 10.98 14.24 8.33 C11.29 7.35 9.24 7.16 6.17 7.14 C5.3 7.13 4.42 7.11 3.51 7.1 C1.04 7.11 1.04 7.11 -0.76 9.33 Z " fill="#01060A" transform="translate(522.764404296875,675.670166015625)"/>
<path d="M0 0 C1.48 0.01 1.48 0.01 3 0.01 C4.07 0.01 5.14 0.02 6.24 0.02 C7.37 0.03 8.49 0.04 9.65 0.06 C11.34 0.06 11.34 0.06 13.06 0.06 C21.45 0.1 21.45 0.1 22.59 1.24 C22.63 2.91 22.63 4.58 22.59 6.24 C20.65 6.33 20.65 6.33 18.68 6.43 C17 6.51 15.33 6.6 13.65 6.68 C12.37 6.74 12.37 6.74 11.07 6.8 C10.26 6.84 9.45 6.88 8.62 6.93 C7.87 6.96 7.12 7 6.35 7.04 C4.56 7.06 4.56 7.06 3.59 8.24 C3.54 10.58 3.54 12.91 3.59 15.24 C4.8 15.3 6.02 15.36 7.27 15.43 C8.85 15.51 10.44 15.6 12.02 15.68 C12.83 15.72 13.63 15.76 14.45 15.8 C20.47 16.13 20.47 16.13 21.59 17.24 C21.63 18.91 21.63 20.58 21.59 22.24 C19.76 22.33 19.76 22.33 17.9 22.43 C16.32 22.51 14.73 22.6 13.15 22.68 C11.94 22.74 11.94 22.74 10.72 22.8 C6.83 22.65 6.83 22.65 3.59 24.24 C3.54 26.58 3.54 28.91 3.59 31.24 C4.16 31.27 4.73 31.29 5.31 31.32 C7.88 31.43 10.45 31.56 13.02 31.68 C13.92 31.72 14.82 31.76 15.74 31.8 C17.02 31.86 17.02 31.86 18.33 31.93 C19.12 31.96 19.91 32 20.73 32.04 C22.59 32.24 22.59 32.24 23.59 33.24 C23.63 34.91 23.63 36.58 23.59 38.24 C19.11 38.27 14.63 38.29 10.15 38.31 C8.87 38.31 7.59 38.32 6.27 38.33 C5.06 38.33 3.84 38.34 2.59 38.34 C1.46 38.35 0.34 38.35 -0.82 38.36 C-3.41 38.24 -3.41 38.24 -4.41 37.24 C-4.53 34.67 -4.58 32.13 -4.58 29.56 C-4.59 28.4 -4.59 28.4 -4.59 27.22 C-4.6 25.59 -4.6 23.96 -4.6 22.32 C-4.6 19.82 -4.62 17.32 -4.64 14.81 C-4.64 13.23 -4.64 11.64 -4.64 10.06 C-4.65 9.31 -4.66 8.56 -4.67 7.78 C-4.63 0.47 -4.63 0.47 0 0 Z " fill="#01060A" transform="translate(402.414306640625,675.757080078125)"/>
<path d="M0 0 C1.45 0.03 1.45 0.03 2.94 0.06 C7.32 9.76 11.7 19.46 16 29.19 C16.45 30.19 16.45 30.19 16.9 31.21 C18.94 35.83 18.94 35.83 18.94 38.06 C15.62 38.38 15.62 38.38 11.94 38.06 C10.06 35.69 10.06 35.69 8.94 33.06 C8.61 32.4 8.28 31.74 7.94 31.06 C2.33 31.06 -3.28 31.06 -9.06 31.06 C-10.38 33.37 -11.7 35.68 -13.06 38.06 C-15.04 38.06 -17.02 38.06 -19.06 38.06 C-20.06 36.06 -20.06 36.06 -19.35 33.91 C-18.97 33.04 -18.58 32.16 -18.18 31.26 C-17.76 30.29 -17.34 29.32 -16.9 28.31 C-16.44 27.28 -15.98 26.25 -15.5 25.19 C-15.04 24.15 -14.58 23.11 -14.11 22.03 C-4.36 0.09 -4.36 0.09 0 0 Z M-2.06 11.06 C-2.76 12.64 -3.45 14.22 -4.12 15.81 C-4.51 16.69 -4.89 17.58 -5.29 18.48 C-6.37 21.29 -6.37 21.29 -5.06 25.06 C-1.76 24.73 1.54 24.4 4.94 24.06 C4.33 19.2 2.21 15.32 -0.06 11.06 C-0.72 11.06 -1.38 11.06 -2.06 11.06 Z " fill="#01060A" transform="translate(753.0625,675.9375)"/>
<path d="M0 0 C1.65 0.33 3.3 0.66 5 1 C5 13.21 5 25.42 5 38 C3.02 38 1.04 38 -1 38 C-2.99 36.01 -2.16 32.05 -2.17 29.32 C-2.17 28.16 -2.17 28.16 -2.18 26.98 C-2.18 25.35 -2.19 23.71 -2.19 22.08 C-2.19 19.58 -2.21 17.07 -2.22 14.57 C-2.23 12.98 -2.23 11.4 -2.23 9.82 C-2.24 9.06 -2.24 8.31 -2.25 7.54 C-2.23 2.23 -2.23 2.23 0 0 Z " fill="#01060A" transform="translate(641,676)"/>
<path d="M0 0 C0.33 0 0.66 0 1 0 C1 18.15 1 36.3 1 55 C-9.23 55 -19.46 55 -30 55 C-30 54.67 -30 54.34 -30 54 C-20.1 54 -10.2 54 0 54 C0 36.18 0 18.36 0 0 Z " fill="#FDFDFD" transform="translate(289,587)"/>
<path d="M0 0 C-12.21 0 -24.42 0 -37 0 C-37 -0.33 -37 -0.66 -37 -1 C-32.05 -1.19 -27.1 -1.37 -22.16 -1.54 C-20.47 -1.6 -18.79 -1.66 -17.1 -1.72 C-14.69 -1.82 -12.27 -1.9 -9.85 -1.98 C-9.1 -2.01 -8.34 -2.04 -7.56 -2.07 C-2.23 -2.23 -2.23 -2.23 0 0 Z " fill="#FDFDFD" transform="translate(771,642)"/>
<path d="M0 0 C10.89 0 21.78 0 33 0 C33 0.33 33 0.66 33 1 C22.11 1 11.22 1 0 1 C0 0.67 0 0.34 0 0 Z " fill="#FDFDFD" transform="translate(537,641)"/>
<path d="M0 0 C9.9 0 19.8 0 30 0 C30 0.33 30 0.66 30 1 C20.1 1 10.2 1 0 1 C0 0.67 0 0.34 0 0 Z " fill="#FDFDFD" transform="translate(624,641)"/>
<path d="M0 0 C0.33 0 0.66 0 1 0 C1 3.3 1 6.6 1 10 C0.67 10 0.34 10 0 10 C0 6.7 0 3.4 0 0 Z " fill="#FDFDFD" transform="translate(221,587)"/>
<path d="M0 0 C1.65 0 3.3 0 5 0 C5 0.33 5 0.66 5 1 C3.35 1 1.7 1 0 1 C0 0.67 0 0.34 0 0 Z " fill="#FDFDFD" transform="translate(158,644)"/>
<path d="M0 0 C1.65 0 3.3 0 5 0 C5 0.33 5 0.66 5 1 C3.35 1 1.7 1 0 1 C0 0.67 0 0.34 0 0 Z " fill="#FDFDFD" transform="translate(150,493)"/>
<path d="M0 0 C3 1 3 1 3 1 Z " fill="#FDFDFD" transform="translate(147,643)"/>
<path d="M0 0 C3 1 3 1 3 1 Z " fill="#FDFDFD" transform="translate(702,496)"/>
<path d="M0 0 C3 1 3 1 3 1 Z " fill="#FDFDFD" transform="translate(328,496)"/>
<path d="" fill="#FDFDFD" transform="translate(0,0)"/>
<path d="M0 0 C2 1 2 1 2 1 Z " fill="#FDFDFD" transform="translate(170,643)"/>
<path d="" fill="#FDFDFD" transform="translate(0,0)"/>
<path d="" fill="#FDFDFD" transform="translate(0,0)"/>
<path d="" fill="#FDFDFD" transform="translate(0,0)"/>
<path d="" fill="#FDFDFD" transform="translate(0,0)"/>
<path d="" fill="#FDFDFD" transform="translate(0,0)"/>
<path d="" fill="#FDFDFD" transform="translate(0,0)"/>
<path d="" fill="#FDFDFD" transform="translate(0,0)"/>
<path d="" fill="#FDFDFD" transform="translate(0,0)"/>
<path d="" fill="#FDFDFD" transform="translate(0,0)"/>
<path d="" fill="#FDFDFD" transform="translate(0,0)"/>
<path d="" fill="#FDFDFD" transform="translate(0,0)"/>
<path d="" fill="#FDFDFD" transform="translate(0,0)"/>
<path d="" fill="#FDFDFD" transform="translate(0,0)"/>
<path d="" fill="#FDFDFD" transform="translate(0,0)"/>
<path d="" fill="#FDFDFD" transform="translate(0,0)"/>
<path d="" fill="#FDFDFD" transform="translate(0,0)"/>
<path d="" fill="#FDFDFD" transform="translate(0,0)"/>
<path d="" fill="#FDFDFD" transform="translate(0,0)"/>
<path d="" fill="#FDFDFD" transform="translate(0,0)"/>
<path d="" fill="#FDFDFD" transform="translate(0,0)"/>
<path d="" fill="#FDFDFD" transform="translate(0,0)"/>
<path d="" fill="#FDFDFD" transform="translate(0,0)"/>
<path d="" fill="#FDFDFD" transform="translate(0,0)"/>
<path d="" fill="#FDFDFD" transform="translate(0,0)"/>
<path d="" fill="#FDFDFD" transform="translate(0,0)"/>
<path d="" fill="#FDFDFD" transform="translate(0,0)"/>
<path d="" fill="#FDFDFD" transform="translate(0,0)"/>
<path d="" fill="#FDFDFD" transform="translate(0,0)"/>
<path d="" fill="#FDFDFD" transform="translate(0,0)"/>
<path d="" fill="#FDFDFD" transform="translate(0,0)"/>
<path d="" fill="#FDFDFD" transform="translate(0,0)"/>
<path d="" fill="#FDFDFD" transform="translate(0,0)"/>
<path d="" fill="#FDFDFD" transform="translate(0,0)"/>
<path d="" fill="#FDFDFD" transform="translate(0,0)"/>
<path d="" fill="#FDFDFD" transform="translate(0,0)"/>
<path d="" fill="#FDFDFD" transform="translate(0,0)"/>
<path d="" fill="#FDFDFD" transform="translate(0,0)"/>
<path d="" fill="#FDFDFD" transform="translate(0,0)"/>
<path d="" fill="#FDFDFD" transform="translate(0,0)"/>
<path d="" fill="#FDFDFD" transform="translate(0,0)"/>
<path d="" fill="#FDFDFD" transform="translate(0,0)"/>
<path d="" fill="#FDFDFD" transform="translate(0,0)"/>
<path d="" fill="#FDFDFD" transform="translate(0,0)"/>
<path d="" fill="#FDFDFD" transform="translate(0,0)"/>
<path d="" fill="#FDFDFD" transform="translate(0,0)"/>
<path d="" fill="#FDFDFD" transform="translate(0,0)"/>
<path d="" fill="#FDFDFD" transform="translate(0,0)"/>
<path d="" fill="#FDFDFD" transform="translate(0,0)"/>
<path d="" fill="#FDFDFD" transform="translate(0,0)"/>
<path d="" fill="#FDFDFD" transform="translate(0,0)"/>
<path d="" fill="#FDFDFD" transform="translate(0,0)"/>
<path d="" fill="#FDFDFD" transform="translate(0,0)"/>
<path d="" fill="#FDFDFD" transform="translate(0,0)"/>
<path d="" fill="#FDFDFD" transform="translate(0,0)"/>
<path d="" fill="#FDFDFD" transform="translate(0,0)"/>
<path d="" fill="#FDFDFD" transform="translate(0,0)"/>
<path d="" fill="#FDFDFD" transform="translate(0,0)"/>
<path d="" fill="#FDFDFD" transform="translate(0,0)"/>
<path d="" fill="#FDFDFD" transform="translate(0,0)"/>
<path d="" fill="#FDFDFD" transform="translate(0,0)"/>
<path d="" fill="#FDFDFD" transform="translate(0,0)"/>
<path d="" fill="#FDFDFD" transform="translate(0,0)"/>
<path d="" fill="#FDFDFD" transform="translate(0,0)"/>
<path d="" fill="#FDFDFD" transform="translate(0,0)"/>
<path d="" fill="#FDFDFD" transform="translate(0,0)"/>
<path d="" fill="#FDFDFD" transform="translate(0,0)"/>
<path d="" fill="#FDFDFD" transform="translate(0,0)"/>
<path d="" fill="#FDFDFD" transform="translate(0,0)"/>
<path d="" fill="#FDFDFD" transform="translate(0,0)"/>
<path d="" fill="#FDFDFD" transform="translate(0,0)"/>
<path d="" fill="#FDFDFD" transform="translate(0,0)"/>
<path d="" fill="#FDFDFD" transform="translate(0,0)"/>
<path d="" fill="#FDFDFD" transform="translate(0,0)"/>
<path d="" fill="#FDFDFD" transform="translate(0,0)"/>
<path d="" fill="#FDFDFD" transform="translate(0,0)"/>
</svg>
